<svg width="85" height="85" fill="none" xmlns="http://www.w3.org/2000/svg"><circle cx="42.5" cy="42.5" r="42" stroke="#fff"/><path d="M30.25 22.625a1.126 1.126 0 0 1 1.125-1.125h20.25a1.126 1.126 0 0 1 1.125 1.125v4.125h1.5v-4.125A2.628 2.628 0 0 0 51.625 20h-20.25a2.628 2.628 0 0 0-2.625 2.625v4.125h1.5v-4.125ZM52.75 59h-22.5v-2.25h-1.5v5.625A2.628 2.628 0 0 0 31.375 65h20.25a2.628 2.628 0 0 0 2.625-2.625V56.75h-1.5V59Zm-1.125 4.5h-20.25a1.126 1.126 0 0 1-1.125-1.125V60.5h22.5v1.875a1.126 1.126 0 0 1-1.125 1.125Z" fill="#fff"/><path d="M38.5 23.75h6v1.5h-6v-1.5Zm24 29.813a.188.188 0 0 1-.188.187H20.688a.188.188 0 0 1-.188-.188V34.25H19v19.313a1.69 1.69 0 0 0 1.688 1.687h41.624A1.69 1.69 0 0 0 64 53.562V47.75h-1.5v5.813Zm-.187-25.313H20.687A1.69 1.69 0 0 0 19 29.938v2.812h1.5v-2.813a.188.188 0 0 1 .188-.187h41.624a.188.188 0 0 1 .188.188V46.25H64V29.937a1.69 1.69 0 0 0-1.688-1.687Z" fill="#fff"/><path d="M46.75 47.75h1.5v3h-1.5v-3Zm-3 0h1.5v3h-1.5v-3Zm6 0h3v3h-3v-3Zm4.5 0h1.5v3h-1.5v-3Zm3 0h3v3h-3v-3Zm-13.5-7.5h10.5v1.5h-10.5v-1.5Zm12 0h4.5v1.5h-4.5v-1.5Zm-6 3h10.5v1.5h-10.5v-1.5Zm-6 0h4.5v1.5h-4.5v-1.5Zm0-6h3v1.5h-3v-1.5Zm4.5 0h6v1.5h-6v-1.5Zm4.5-4.5h1.5v1.5h-1.5v-1.5Zm3 0h1.5v1.5h-1.5v-1.5Zm3 0h1.5v1.5h-1.5v-1.5Zm-15 1.5h6.75v1.5h-6.75v-1.5Zm-3.75 18a.75.75 0 0 0 .75-.75V32a.75.75 0 0 0-.75-.75H23.5a.75.75 0 0 0-.75.75v19.5a.75.75 0 0 0 .75.75H40Zm-15.75-3.3a2.071 2.071 0 0 1 1.338-1.932l3.65-1.368.412.55a2.626 2.626 0 0 0 4.2 0l.413-.55 3.648 1.369a2.071 2.071 0 0 1 1.339 1.93v1.801h-15v-1.8Zm8.914-4.336-.514.686a1.125 1.125 0 0 1-1.8 0l-.514-.686.455-1.364h1.918l.455 1.364ZM34 40.625a1.126 1.126 0 0 1-1.125 1.125h-2.25a1.126 1.126 0 0 1-1.125-1.125v-3.75a1.126 1.126 0 0 1 1.125-1.125h2.25A1.126 1.126 0 0 1 34 36.875v3.75Zm5.25-7.875v13.296a3.528 3.528 0 0 0-.812-.433l-3.84-1.44-.423-1.268a2.626 2.626 0 0 0 1.325-2.28v-3.75a2.628 2.628 0 0 0-2.625-2.625h-2.25A2.628 2.628 0 0 0 28 36.875v3.75a2.626 2.626 0 0 0 1.325 2.28l-.423 1.268-3.84 1.44a3.528 3.528 0 0 0-.812.433V32.75h15Z" fill="#fff"/></svg>